<svg xmlns="http://www.w3.org/2000/svg" viewBox="0 0 69.64 74.65"><defs><style>.cls-1{fill:#9d9d9d;}.cls-2{fill:#f36d36;}.cls-3{fill:#fff;}</style></defs><title>AddForm</title><g id="Layer_2" data-name="Layer 2"><g id="Layer_1-2" data-name="Layer 1"><path class="cls-1" d="M17.82.34a5.17,5.17,0,0,0-5,5v1H1.68A1.59,1.59,0,0,0,0,8.07V73a1.59,1.59,0,0,0,1.68,1.68H55.82A1.59,1.59,0,0,0,57.5,73V7.73a1.59,1.59,0,0,0-1.68-1.68H44.72V5a5.17,5.17,0,0,0-5-5H17.82Zm0,3.36H39.68a1.59,1.59,0,0,1,1.68,1.68v5a1.59,1.59,0,0,1-1.68,1.68H17.82a1.59,1.59,0,0,1-1.68-1.68v-5A1.59,1.59,0,0,1,17.82,3.7ZM3.36,9.42h9.42v1a5.17,5.17,0,0,0,5,5H39.68a5.17,5.17,0,0,0,5-5v-1h9.42V71.29H3.36Zm6.73,18.83a1.68,1.68,0,1,0,0,3.36H47.41a1.68,1.68,0,0,0,0-3.36H10.09Zm0,15.13a1.68,1.68,0,1,0,0,3.36H47.41a1.68,1.68,0,1,0,0-3.36H10.09Zm0,15.13a1.68,1.68,0,1,0,0,3.36H47.41a1.68,1.68,0,1,0,0-3.36H10.09Z"/><circle class="cls-2" cx="56.64" cy="30.81" r="13"/><path class="cls-3" d="M49.91,29.26h5.18V24.09h3.09v5.18h5.18v3.09H58.18v5.18H55.09V32.36H49.91Z"/></g></g></svg>