<svg xmlns="http://www.w3.org/2000/svg" viewBox="0 0 81.03 81.03"><defs><style>.cls-1{fill:#9d9d9d;}.cls-2{fill:#f36d36;}.cls-3{fill:#fff;}</style></defs><title>AddItem</title><g id="Layer_2" data-name="Layer 2"><g id="canvas"><path class="cls-1" d="M71.52,0l-25,0a10,10,0,0,0-7.09,2.91L2.9,39.46a9.93,9.93,0,0,0,0,14L27.54,78.13a9.92,9.92,0,0,0,14,0l3.92-3.92a1.82,1.82,0,1,0-2.57-2.57L39,75.55a6.28,6.28,0,0,1-8.88,0L5.47,50.92a6.28,6.28,0,0,1,0-8.88L42,5.48a6.19,6.19,0,0,1,4.5-1.84l25,0a5.84,5.84,0,0,1,5.83,5.82l0,25A6.32,6.32,0,0,1,75.55,39l-3.6,3.6a1.82,1.82,0,1,0,2.57,2.57l3.6-3.6A10,10,0,0,0,81,34.49l0-25A9.49,9.49,0,0,0,71.52,0Z"/><path class="cls-1" d="M70,19.14a8.19,8.19,0,1,0-8.19,8.19A8.2,8.2,0,0,0,70,19.14Zm-12.74,0a4.55,4.55,0,1,1,4.55,4.55A4.56,4.56,0,0,1,57.3,19.14Z"/><circle class="cls-2" cx="63.21" cy="62.99" r="15.47"/><path class="cls-3" d="M55.21,61.15h6.16V55h3.68v6.16h6.16v3.68H65.05V71H61.37V64.83H55.21Z"/></g></g></svg>