<?xml version="1.0" encoding="UTF-8"?>
<svg width="25px" height="25px" viewBox="0 0 25 25" version="1.1" xmlns="http://www.w3.org/2000/svg" xmlns:xlink="http://www.w3.org/1999/xlink">
    <!-- Generator: Sketch 41.2 (35397) - http://www.bohemiancoding.com/sketch -->
    <title>Artboard</title>
    <desc>Created with Sketch.</desc>
    <defs></defs>
    <g id="Page-1" stroke="none" stroke-width="1" fill="none" fill-rule="evenodd">
        <g id="Artboard" fill="#6D6F71">
            <g id="Layer_1" transform="translate(3.000000, 4.000000)">
                <path d="M18.5524183,0.43497775 C18.7913518,0.664113958 18.9253567,0.981190009 18.9230065,1.31184594 L18.9230065,15.1093141 C18.9172512,15.801252 18.3564874,16.3607681 17.6630065,16.3665107 L1.31477124,16.3665107 C0.62129038,16.3607681 0.0605265662,15.801252 0.0547712418,15.1093141 L0.0547712418,3.76285101 C0.0475035405,3.43430844 0.182561053,3.118592 0.425359477,2.89654749 C0.660566882,2.66894953 0.976561451,2.54359267 1.30418301,2.54791315 L10.1030065,2.54791315 C10.7873544,2.52089274 11.3359259,1.9735418 11.3630065,1.29071659 C11.6268989,0.508208392 12.3787934,-0.00487416092 13.2053595,0.0335200246 L17.6735948,0.0335200246 C18.0097902,0.0393649205 18.328305,0.1848665 18.5524183,0.43497775 Z M17.6735948,1.31184594 L13.2265359,1.31184594 C13.086441,1.32897521 12.9560521,1.39216604 12.8559477,1.49144545 C12.6930504,1.6364802 12.5661808,1.8173192 12.4853595,2.0196793 C12.1825958,3.02645247 11.2908949,3.74410147 10.2406536,3.82623907 L1.32535948,3.82623907 L1.32535948,15.1198788 L17.6735948,15.1198788 L17.6735948,1.31184594 Z M13.0888889,9.0451895 C13.2639115,9.22587428 13.3130805,9.49375104 13.213595,9.72459809 C13.1141094,9.95544514 12.8854273,10.1041118 12.6335948,10.1016572 L10.124183,10.1016572 L10.124183,12.6160503 C10.124183,12.9632156 9.8421224,13.2446486 9.49418301,13.2446486 C9.14624361,13.2446486 8.86418301,12.9632156 8.86418301,12.6160503 L8.86418301,10.1016572 L6.34418301,10.1016572 C5.99624361,10.1016572 5.71418301,9.82022417 5.71418301,9.47305892 C5.71418301,9.12589368 5.99624361,8.84446064 6.34418301,8.84446064 L8.86418301,8.84446064 L8.86418301,6.34063219 C8.86418301,5.99346695 9.14624361,5.71203391 9.49418301,5.71203391 C9.8421224,5.71203391 10.124183,5.99346695 10.124183,6.34063219 L10.124183,8.85502532 L12.644183,8.85502532 C12.8122528,8.85502532 12.9729787,8.92375455 13.0888889,9.0451895 L13.0888889,9.0451895 Z" id="Shape"></path>
            </g>
        </g>
    </g>
</svg>