<svg xmlns="http://www.w3.org/2000/svg" viewBox="0 0 58 58"><defs><style>.cls-1{fill:#9d9d9d;}</style></defs><title>ApplyTheme</title><g id="Layer_2" data-name="Layer 2"><g id="canvas"><path class="cls-1" d="M8.28,50.93a1.22,1.22,0,1,1-1.22-1.22A1.22,1.22,0,0,1,8.28,50.93ZM13.16,0a1,1,0,0,1,1,1V15.43L19.66,2.07a1,1,0,0,1,1.26-.52L32.18,6.21a1,1,0,0,1,.52,1.26L27.23,20.71,37.41,10.52a1,1,0,0,1,1.37,0l8.62,8.62a1,1,0,0,1,0,1.37L37,31l13.57-5.62a1,1,0,0,1,1.26.52l4.66,11.26a1,1,0,0,1-.52,1.27L42.68,43.87H57a1,1,0,0,1,1,1V57a1,1,0,0,1-1,1H1a1,1,0,0,1-1-1V1A1,1,0,0,1,1,0Zm1.22,20.54V46L30.22,7.76,21.21,4ZM11.94,55.81V46.06H2.19v9.75Zm44.12-10H38L13.25,56.06h42.8Zm-2-8.75.23-.1-3.92-9.47-16.95,7-19,19ZM45.34,19.82,38.1,12.58,25.32,25.35,15,50.13ZM12.19,1.94H1.94V43.87H12.19Z"/></g></g></svg>