<svg id="Layer_1" data-name="Layer 1" xmlns="http://www.w3.org/2000/svg" viewBox="0 0 17.76 18.95"><defs><style>.cls-1{isolation:isolate;}.cls-2{fill:#257a91;}</style></defs><title>Attachment.Sm</title><g id="Layer_2" data-name="Layer 2"><g id="Notes"><g class="cls-1"><path class="cls-2" d="M15.92,11.69q.67.67,1,1.06t.83,1.11a3.31,3.31,0,0,1,.59,1.28,2.81,2.81,0,0,1-.13,1.28,3.69,3.69,0,0,1-.89,1.43A3.49,3.49,0,0,1,14.88,19q-1.78,0-4-2.23L2.49,8.35A5.76,5.76,0,0,1,.63,4.71,4.2,4.2,0,0,1,2,1.3,4,4,0,0,1,5.27,0,6,6,0,0,1,8.87,2l7.72,7.72a.52.52,0,0,1,0,.83.51.51,0,0,1-.83,0L8,2.82a4.75,4.75,0,0,0-.83-.72A9.32,9.32,0,0,0,6,1.43a2.51,2.51,0,0,0-1.6-.19,3.1,3.1,0,0,0-1.6.91A3.18,3.18,0,0,0,1.86,4,3.3,3.3,0,0,0,2.17,5.9,6.57,6.57,0,0,0,3.3,7.49l8.42,8.39a6,6,0,0,0,2.67,1.84A2.18,2.18,0,0,0,16.48,17a1.86,1.86,0,0,0,.69-1.26,2.27,2.27,0,0,0-.46-1.34,14.55,14.55,0,0,0-1.63-1.86L7.53,5a2.14,2.14,0,0,0-1.09-.63,1.4,1.4,0,0,0-1.17.37A1.48,1.48,0,0,0,4.9,5.9,2.13,2.13,0,0,0,5.53,7l6.79,6.79a.53.53,0,0,1,0,.83.54.54,0,0,1-.85,0L4.68,7.83a3.26,3.26,0,0,1-1-2,2.4,2.4,0,0,1,.74-1.91,2.35,2.35,0,0,1,1.91-.76,3.08,3.08,0,0,1,2,1Z" transform="translate(-0.62 -0.01)"/></g></g></g></svg>