<svg xmlns="http://www.w3.org/2000/svg" viewBox="0 0 77.62 57.79"><defs><style>.cls-1{fill:none;stroke:#9d9d9d;stroke-miterlimit:10;stroke-width:1.62px;}</style></defs><title>Camera</title><g id="Layer_2" data-name="Layer 2"><g id="canvas"><path class="cls-1" d="M7.42,10.72l.09-3.3a3.36,3.36,0,0,1,3.21-3.3h3.12a3.53,3.53,0,0,1,3.49,3.3v3.3"/><path class="cls-1" d="M63.59,10.72l-3.3-6.61c-1.16-1.74-2.87-3.3-5-3.3H38.81c-2.09,0-3.8,1.57-5,3.3l-5,6.61H7.42c-5,0-6.61,2.24-6.61,5.69V50.74C.81,54.19,2.46,57,7.6,57H70c5.14,0,6.79-2.79,6.79-6.24V16.41c0-3.45-1.65-5.69-6.79-5.69Z"/><circle class="cls-1" cx="47.07" cy="32.2" r="18.17"/><circle class="cls-1" cx="47.07" cy="32.2" r="9.91"/><circle class="cls-1" cx="12.37" cy="22.29" r="4.96"/></g></g></svg>