<?xml version="1.0" encoding="utf-8"?>
<!-- Generator: Adobe Illustrator 20.1.0, SVG Export Plug-In . SVG Version: 6.00 Build 0)  -->
<svg version="1.1" id="Layer_1" xmlns="http://www.w3.org/2000/svg" xmlns:xlink="http://www.w3.org/1999/xlink" x="0px" y="0px"
	 viewBox="0 0 27.5 27.6" style="enable-background:new 0 0 27.5 27.6;" xml:space="preserve">
<style type="text/css">
	.st0{enable-background:new    ;}
	.st1{fill:#B0DFE5;}
</style>
<title>Code.png</title>
<g id="Layer_2">
	<g id="canvas">
		<g class="st0">
			<path class="st1" d="M27.2,0.3c0.2,0.2,0.2,0.4,0.2,0.6v3.4c0,0.4-0.2,0.6-0.5,0.8l-2.8,1.4l-0.3,3.3c0,0.5-0.3,0.7-0.8,0.8
				l-3.3,0.2v3.1c0,0.3-0.1,0.6-0.4,0.8l-2.6,1.7c0.3,0.9,0.4,1.8,0.4,2.7c0,2.4-0.8,4.4-2.5,6.1c-1.7,1.7-3.7,2.5-6.1,2.5
				S4.2,26.6,2.5,25C0.8,23.3,0,21.3,0,18.9c0-2.4,0.8-4.4,2.5-6.1c1.7-1.7,3.7-2.5,6.1-2.5c0.5,0,1,0.1,1.6,0.2L22.3,0.2
				C22.5,0.1,22.7,0,22.9,0h3.7C26.8,0,27,0.1,27.2,0.3z M25.7,1.7h-2.5L10.9,12.1c-0.2,0.2-0.5,0.2-0.8,0.2C9.6,12.1,9.1,12,8.6,12
				c-1.9,0-3.5,0.7-4.9,2c-1.3,1.3-2,3-2,4.9c0,1.3,0.3,2.4,1,3.5c0.6,1,1.3,1.7,2.3,2.3c1.1,0.7,2.3,1,3.5,1c1.9,0,3.5-0.7,4.9-2
				c1.3-1.3,2-3,2-4.9c0-0.9-0.2-1.8-0.5-2.7c-0.2-0.4-0.1-0.8,0.3-1l2.8-1.8V9.9c0-0.2,0.1-0.4,0.2-0.6C18.4,9.1,18.6,9,18.8,9
				l3.3-0.2l0.3-3.1c0-0.3,0.2-0.6,0.5-0.7l2.8-1.3V1.7z M8.4,23.9c-0.7,0.7-1.5,1-2.4,1c-0.3,0-0.6-0.1-1-0.2
				c-1-0.6-1.7-1.3-2.3-2.3c-0.1-0.4-0.2-0.7-0.2-1c0-0.9,0.3-1.7,1-2.4c0.7-0.7,1.5-1,2.4-1c0.7,0,1.3,0.2,1.8,0.5
				c0.6,0.4,1,0.8,1.3,1.4c0.2,0.5,0.3,0.9,0.3,1.4C9.4,22.4,9.1,23.2,8.4,23.9z M4.8,20.3c-0.3,0.3-0.5,0.7-0.5,1.2
				c0,0.5,0.2,0.9,0.5,1.2C5.1,23,5.5,23.2,6,23.2c0.5,0,0.9-0.2,1.2-0.5c0.3-0.3,0.5-0.7,0.5-1.2c0-0.2-0.1-0.5-0.2-0.8
				c-0.3-0.6-0.8-1-1.6-1C5.5,19.8,5.1,19.9,4.8,20.3z"/>
		</g>
	</g>
</g>
</svg>
