<?xml version="1.0" encoding="utf-8"?>
<!-- Generator: Adobe Illustrator 20.1.0, SVG Export Plug-In . SVG Version: 6.00 Build 0)  -->
<svg version="1.1" id="Layer_1" xmlns="http://www.w3.org/2000/svg" xmlns:xlink="http://www.w3.org/1999/xlink" x="0px" y="0px"
	 viewBox="0 0 19 19.1" style="enable-background:new 0 0 19 19.1;" xml:space="preserve">
<style type="text/css">
	.st0{enable-background:new    ;}
	.st1{fill:#257A91;}
</style>
<title>Code.Sm</title>
<g id="Layer_2">
	<g id="Notes">
		<g class="st0">
			<path class="st1" d="M18.8,0.2C18.9,0.3,19,0.4,19,0.6V3c0,0.2-0.1,0.4-0.3,0.5l-2,1l-0.2,2.3c0,0.3-0.2,0.5-0.6,0.5l-2.3,0.1
				v2.2c0,0.2-0.1,0.4-0.3,0.5l-1.8,1.2c0.2,0.6,0.3,1.2,0.3,1.9c0,1.6-0.6,3-1.7,4.2C9,18.4,7.6,19,5.9,19s-3-0.6-4.2-1.7
				C0.6,16.1,0,14.7,0,13.1s0.6-3,1.7-4.2c1.2-1.2,2.6-1.7,4.2-1.7c0.3,0,0.7,0,1.1,0.1l8.4-7.1C15.6,0.1,15.7,0,15.8,0h2.6
				C18.6,0,18.7,0.1,18.8,0.2z M17.8,1.2h-1.7L7.6,8.4C7.4,8.5,7.2,8.5,7.1,8.5C6.7,8.4,6.3,8.3,5.9,8.3c-1.3,0-2.4,0.5-3.4,1.4
				s-1.4,2-1.4,3.4c0,0.9,0.2,1.7,0.7,2.4c0.4,0.7,0.9,1.2,1.6,1.6c0.8,0.5,1.6,0.7,2.4,0.7c1.3,0,2.4-0.5,3.4-1.4s1.4-2,1.4-3.4
				c0-0.6-0.1-1.3-0.4-1.9c-0.1-0.3,0-0.5,0.2-0.7l1.9-1.3V6.8c0-0.1,0.1-0.3,0.2-0.4c0.1-0.1,0.2-0.2,0.4-0.2l2.3-0.1L15.5,4
				c0-0.2,0.1-0.4,0.3-0.5l1.9-0.9V1.2z M5.8,16.5c-0.5,0.5-1,0.7-1.7,0.7c-0.2,0-0.4,0-0.7-0.1c-0.7-0.4-1.2-0.9-1.6-1.6
				c-0.1-0.2-0.1-0.5-0.1-0.7c0-0.6,0.2-1.2,0.7-1.7c0.5-0.5,1-0.7,1.7-0.7c0.5,0,0.9,0.1,1.3,0.4c0.4,0.2,0.7,0.6,0.9,1
				c0.1,0.3,0.2,0.7,0.2,1C6.5,15.5,6.3,16.1,5.8,16.5z M3.3,14C3.1,14.3,3,14.5,3,14.9c0,0.3,0.1,0.6,0.4,0.8
				C3.6,15.9,3.8,16,4.2,16c0.3,0,0.6-0.1,0.8-0.4c0.2-0.2,0.4-0.5,0.4-0.8c0-0.2,0-0.3-0.1-0.5c-0.2-0.4-0.6-0.7-1.1-0.7
				C3.8,13.7,3.6,13.8,3.3,14z"/>
		</g>
	</g>
</g>
</svg>
