<svg xmlns="http://www.w3.org/2000/svg" viewBox="0 0 19 19"><defs><style>.cls-1{fill:#257a91;}</style></defs><title>Code</title><g id="Layer_2" data-name="Layer 2"><g id="Layer_1-2" data-name="Layer 1"><path class="cls-1" d="M18.83.17A.58.58,0,0,1,19,.59V3a.52.52,0,0,1-.33.52l-2,1-.22,2.3a.52.52,0,0,1-.56.52l-2.26.11V9.54a.6.6,0,0,1-.26.52l-1.82,1.15a6.08,6.08,0,0,1,.3,1.86,5.72,5.72,0,0,1-1.74,4.19A5.72,5.72,0,0,1,5.94,19a5.72,5.72,0,0,1-4.19-1.74A5.71,5.71,0,0,1,0,13.06,5.71,5.71,0,0,1,1.74,8.87,5.72,5.72,0,0,1,5.94,7.13a6.07,6.07,0,0,1,1.11.11L15.44.15A.64.64,0,0,1,15.85,0h2.56A.58.58,0,0,1,18.83.17Zm-1,1H16.07L7.57,8.35a.56.56,0,0,1-.52.11,4.63,4.63,0,0,0-1.11-.15A4.58,4.58,0,0,0,2.58,9.7a4.69,4.69,0,0,0-.69,5.81,4.47,4.47,0,0,0,1.6,1.6,4.6,4.6,0,0,0,2.45.71,4.58,4.58,0,0,0,3.36-1.39,4.58,4.58,0,0,0,1.39-3.36,4.8,4.8,0,0,0-.37-1.86.52.52,0,0,1,.22-.71l1.93-1.26V6.83a.6.6,0,0,1,.17-.41A.51.51,0,0,1,13,6.23l2.3-.11L15.55,4a.57.57,0,0,1,.33-.48l1.93-.93Zm-12,15.33a2.28,2.28,0,0,1-1.67.71,2.34,2.34,0,0,1-.67-.11,4.47,4.47,0,0,1-1.6-1.6,2.35,2.35,0,0,1-.11-.67,2.28,2.28,0,0,1,.71-1.67,2.28,2.28,0,0,1,1.67-.71,2.31,2.31,0,0,1,1.28.37,2.39,2.39,0,0,1,1.1,2A2.29,2.29,0,0,1,5.83,16.51ZM3.32,14a1.19,1.19,0,0,0,.84,2,1.21,1.21,0,0,0,1.19-1.19,1.31,1.31,0,0,0-.11-.52,1.12,1.12,0,0,0-1.08-.67A1.14,1.14,0,0,0,3.32,14Z"/></g></g></svg>