<svg xmlns="http://www.w3.org/2000/svg" viewBox="0 0 138.91 116.86"><defs><style>.cls-1{fill:none;stroke:#9e9e9e;stroke-linecap:round;stroke-linejoin:round;stroke-width:4px;}.cls-2{fill:#f36d36;}.cls-3{fill:#fff;}</style></defs><title>CreateTabIcon</title><g id="Layer_2" data-name="Layer 2"><g id="Notes"><rect class="cls-1" x="2" y="2" width="112.61" height="112.86" rx="8.44" ry="8.44"/><line class="cls-1" x1="29.67" y1="30.07" x2="72.94" y2="30.07"/><line class="cls-1" x1="29.67" y1="45.3" x2="51.3" y2="45.3"/><line class="cls-1" x1="29.67" y1="60.53" x2="51.3" y2="60.53"/><line class="cls-1" x1="29.67" y1="75.76" x2="45.89" y2="75.76"/><line class="cls-1" x1="75.65" y1="85.92" x2="75.65" y2="90.99"/><line class="cls-1" x1="75.65" y1="50.38" x2="75.65" y2="55.46"/><path class="cls-1" d="M67.53,78.3a8.13,8.13,0,1,0,8.11-7.62,7.63,7.63,0,1,1,8.11-7.62"/><circle class="cls-2" cx="119.16" cy="39.74" r="19.75"/><path class="cls-3" d="M108.94,37.39h7.86V29.52h4.7v7.86h7.86v4.7h-7.86V50h-4.7V42.09h-7.86Z"/></g></g></svg>