<?xml version="1.0" encoding="utf-8"?>
<!-- Generator: Adobe Illustrator 20.1.0, SVG Export Plug-In . SVG Version: 6.00 Build 0)  -->
<svg version="1.1" id="Layer_1" xmlns="http://www.w3.org/2000/svg" xmlns:xlink="http://www.w3.org/1999/xlink" x="0px" y="0px"
	 viewBox="0 0 27.5 27.6" style="enable-background:new 0 0 27.5 27.6;" xml:space="preserve">
<style type="text/css">
	.st0{enable-background:new    ;}
	.st1{fill:#B0DFE5;}
</style>
<title>Data.Sm_1</title>
<g id="Layer_2">
	<g id="canvas">
		<g class="st0">
			<path class="st1" d="M1.7,1.7c0-0.5,0.2-0.9,0.5-1.2C2.6,0.2,3,0,3.4,0H24c0.5,0,0.9,0.2,1.2,0.5s0.5,0.7,0.5,1.2v24
				c0,0.5-0.2,0.9-0.5,1.2s-0.7,0.5-1.2,0.5H3.4c-0.5,0-0.9-0.2-1.2-0.5c-0.3-0.3-0.5-0.7-0.5-1.2V1.7z M3.4,25.8H24v-24H3.4V25.8z
				 M6.9,22.3h3.4v-6.9H6.9V22.3z M12,22.3h3.4V6.9H12V22.3z M17.2,22.3h3.4v-12h-3.4V22.3z"/>
		</g>
	</g>
</g>
</svg>
