<svg xmlns="http://www.w3.org/2000/svg" viewBox="0 0 16.63 19"><defs><style>.cls-1{fill:#257a91;}</style></defs><title>Data</title><g id="Layer_2" data-name="Layer 2"><g id="Layer_1-2" data-name="Layer 1"><path class="cls-1" d="M0,1.19A1.14,1.14,0,0,1,.35.35,1.14,1.14,0,0,1,1.19,0H15.44a1.14,1.14,0,0,1,.83.35,1.14,1.14,0,0,1,.35.83V17.81A1.2,1.2,0,0,1,15.44,19H1.19a1.14,1.14,0,0,1-.83-.35A1.14,1.14,0,0,1,0,17.81ZM1.19,17.81H15.44V1.19H1.19Zm2.38-2.37H5.94V10.69H3.56Zm3.56,0H9.5V4.75H7.13Zm3.56,0h2.38V7.13H10.69Z"/></g></g></svg>