<?xml version="1.0" encoding="utf-8"?>
<!-- Generator: Adobe Illustrator 20.1.0, SVG Export Plug-In . SVG Version: 6.00 Build 0)  -->
<svg version="1.1" id="Layer_1" xmlns="http://www.w3.org/2000/svg" xmlns:xlink="http://www.w3.org/1999/xlink" x="0px" y="0px"
	 viewBox="0 0 19 19.1" style="enable-background:new 0 0 19 19.1;" xml:space="preserve">
<style type="text/css">
	.st0{enable-background:new    ;}
	.st1{fill:#257A91;}
</style>
<title>Data.Sm</title>
<g id="Layer_2">
	<g id="Notes">
		<g class="st0">
			<path class="st1" d="M1.2,1.2c0-0.3,0.1-0.6,0.4-0.8C1.8,0.1,2.1,0,2.4,0h14.2c0.3,0,0.6,0.1,0.8,0.4c0.2,0.2,0.4,0.5,0.4,0.8
				v16.6c0,0.3-0.1,0.6-0.4,0.8c-0.2,0.2-0.5,0.4-0.8,0.4H2.4c-0.3,0-0.6-0.1-0.8-0.4c-0.2-0.2-0.4-0.5-0.4-0.8V1.2z M2.4,17.8h14.2
				V1.2H2.4V17.8z M4.8,15.5h2.4v-4.8H4.8V15.5z M8.3,15.5h2.4V4.8H8.3V15.5z M11.9,15.5h2.4V7.1h-2.4V15.5z"/>
		</g>
	</g>
</g>
</svg>
