<?xml version="1.0" encoding="UTF-8"?>
<svg width="40px" height="40px" viewBox="0 0 40 40" version="1.1" xmlns="http://www.w3.org/2000/svg" xmlns:xlink="http://www.w3.org/1999/xlink">
    <!-- Generator: Sketch 41.2 (35397) - http://www.bohemiancoding.com/sketch -->
    <title>Details Icon</title>
    <desc>Created with Sketch.</desc>
    <defs></defs>
    <g id="Page-1" stroke="none" stroke-width="1" fill="none" fill-rule="evenodd">
        <g id="Details-Icon" fill="#FFFFFF">
            <g id="SidebarDetails" transform="translate(4.000000, 4.000000)">
                <g id="Layer_2">
                    <g>
                        <g id="Layer_1-2">
                            <path d="M32.1315789,16.5 C32.1983387,20.6589225 30.541868,24.6602266 27.555,27.555 C24.6602266,30.541868 20.6589225,32.1983387 16.5,32.1315789 C12.3410775,32.1983387 8.33977344,30.541868 5.445,27.555 C2.45813202,24.6602266 0.801661315,20.6589225 0.868421053,16.5 C0.801661315,12.3410775 2.45813202,8.33977344 5.445,5.445 C8.33977344,2.45813202 12.3410775,0.801661315 16.5,0.868421053 C20.6589225,0.801661315 24.6602266,2.45813202 27.555,5.445 C30.541868,8.33977344 32.1983387,12.3410775 32.1315789,16.5 Z M30.1776316,16.5 C30.2358503,12.8608782 28.7869407,9.35960838 26.1742105,6.82578947 C23.6403916,4.21305933 20.1391218,2.76414965 16.5,2.82236842 C12.8608782,2.76414965 9.35960838,4.21305933 6.82578947,6.82578947 C4.21305933,9.35960838 2.76414965,12.8608782 2.82236842,16.5 C2.76414965,20.1391218 4.21305933,23.6403916 6.82578947,26.1742105 C9.35960838,28.7869407 12.8608782,30.2358503 16.5,30.1776316 C20.1391218,30.2358503 23.6403916,28.7869407 26.1742105,26.1742105 C28.7869407,23.6403916 30.2358503,20.1391218 30.1776316,16.5 Z M16.5,6.79105263 C17.0116889,6.78497463 17.5049844,6.98166839 17.8721053,7.33815789 C18.2467442,7.68503347 18.4579574,8.17366088 18.4539474,8.68421053 C18.4632873,9.21351629 18.2525875,9.72296963 17.8721053,10.0910526 C17.5110334,10.4602519 17.0164116,10.6683629 16.5,10.6683629 C15.9835884,10.6683629 15.4889666,10.4602519 15.1278947,10.0910526 C14.7474125,9.72296963 14.5367127,9.21351629 14.5460526,8.68421053 C14.5346127,8.16463382 14.7464494,7.66507873 15.1278947,7.31210526 C15.4986754,6.96430731 15.9918217,6.77703656 16.5,6.79105263 L16.5,6.79105263 Z M18.4539474,14.5460526 L18.4539474,24.3157895 C18.4539474,25.3949248 17.5791353,26.2697368 16.5,26.2697368 C15.4208647,26.2697368 14.5460526,25.3949248 14.5460526,24.3157895 L14.5460526,14.5460526 C14.5460526,13.4669173 15.4208647,12.5921053 16.5,12.5921053 C17.5791353,12.5921053 18.4539474,13.4669173 18.4539474,14.5460526 Z" id="Shape"></path>
                        </g>
                    </g>
                </g>
            </g>
        </g>
    </g>
</svg>