<?xml version="1.0" encoding="UTF-8"?>
<svg width="42px" height="42px" viewBox="0 0 42 42" version="1.1" xmlns="http://www.w3.org/2000/svg" xmlns:xlink="http://www.w3.org/1999/xlink">
    <!-- Generator: Sketch 41.2 (35397) - http://www.bohemiancoding.com/sketch -->
    <title>Details Icon</title>
    <desc>Created with Sketch.</desc>
    <defs></defs>
    <g id="Page-1" stroke="none" stroke-width="1" fill="none" fill-rule="evenodd">
        <g id="Details-Icon" fill="#FFFFFF">
            <g id="SidebarDetails" transform="translate(2.000000, 2.000000)">
                <g id="Layer_2">
                    <g>
                        <g id="Layer_1-2">
                            <path d="M37,19 C37.0768748,23.7890623 35.1694237,28.3966245 31.73,31.73 C28.3966245,35.1694237 23.7890623,37.0768748 19,37 C14.2109377,37.0768748 9.60337548,35.1694237 6.27,31.73 C2.83057627,28.3966245 0.923125151,23.7890623 1,19 C0.923125151,14.2109377 2.83057627,9.60337548 6.27,6.27 C9.60337548,2.83057627 14.2109377,0.923125151 19,1 C23.7890623,0.923125151 28.3966245,2.83057627 31.73,6.27 C35.1694237,9.60337548 37.0768748,14.2109377 37,19 Z M34.75,19 C34.8170398,14.8094961 33.1485984,10.7777309 30.14,7.86 C27.2222691,4.85140165 23.1905039,3.1829602 19,3.25 C14.8094961,3.1829602 10.7777309,4.85140165 7.86,7.86 C4.85140165,10.7777309 3.1829602,14.8094961 3.25,19 C3.1829602,23.1905039 4.85140165,27.2222691 7.86,30.14 C10.7777309,33.1485984 14.8094961,34.8170398 19,34.75 C23.1905039,34.8170398 27.2222691,33.1485984 30.14,30.14 C33.1485984,27.2222691 34.8170398,23.1905039 34.75,19 Z M19,7.82 C19.5892175,7.81300109 20.1572548,8.03949694 20.58,8.45 C21.0114025,8.84943248 21.2546176,9.41209434 21.25,10 C21.2607551,10.6095036 21.0181311,11.1961468 20.58,11.62 C20.1642203,12.0451386 19.5946558,12.2847816 19,12.2847816 C18.4053442,12.2847816 17.8357797,12.0451386 17.42,11.62 C16.9818689,11.1961468 16.7392449,10.6095036 16.75,10 C16.7368268,9.40169955 16.9807599,8.8264543 17.42,8.42 C17.8469595,8.01950539 18.4148249,7.80386029 19,7.82 L19,7.82 Z M21.25,16.75 L21.25,28 C21.25,29.2426407 20.2426407,30.25 19,30.25 C17.7573593,30.25 16.75,29.2426407 16.75,28 L16.75,16.75 C16.75,15.5073593 17.7573593,14.5 19,14.5 C20.2426407,14.5 21.25,15.5073593 21.25,16.75 Z" id="Shape"></path>
                        </g>
                    </g>
                </g>
            </g>
        </g>
    </g>
</svg>