<?xml version="1.0" encoding="utf-8"?>
<!-- Generator: Adobe Illustrator 20.1.0, SVG Export Plug-In . SVG Version: 6.00 Build 0)  -->
<svg version="1.1" id="Layer_1" xmlns="http://www.w3.org/2000/svg" xmlns:xlink="http://www.w3.org/1999/xlink" x="0px" y="0px"
	 viewBox="0 0 27.5 27.6" style="enable-background:new 0 0 27.5 27.6;" xml:space="preserve">
<style type="text/css">
	.st0{enable-background:new    ;}
	.st1{fill:#B0DFE5;}
</style>
<title>Discount.Sme</title>
<g id="Layer_2">
	<g id="canvas">
		<g class="st0">
			<path class="st1" d="M0.9,3.4h2.5c0.5,0,0.8,0.2,0.9,0.6l0.6,2.8c0.2,0,0.3-0.1,0.4-0.1h20.6c0.5,0,1,0.2,1.3,0.6
				c0.4,0.4,0.4,0.9,0.2,1.6l-2.7,8.5c-0.2,0.5-0.5,0.9-0.8,1c-0.3,0.2-0.7,0.2-1.2,0.2H6.9c0,0-0.1,0-0.1,0c-0.1,0-0.1,0-0.1,0
				l-0.4,1.8h18.4c0.2,0,0.5,0.1,0.6,0.2c0.2,0.2,0.2,0.4,0.2,0.6s-0.1,0.5-0.2,0.6c-0.2,0.2-0.4,0.2-0.6,0.2H5.2
				c-0.3,0-0.5-0.1-0.7-0.3c-0.2-0.2-0.2-0.4-0.2-0.7l0.9-4c0-0.1-0.1-0.1-0.1-0.2L3.7,9.7L2.6,5.2H0.9c-0.3,0-0.5-0.1-0.6-0.2
				C0.1,4.8,0,4.5,0,4.3s0-0.4,0-0.4s0.1-0.1,0.2-0.2C0.4,3.5,0.6,3.4,0.9,3.4z M6.9,24c0.5,0,0.9,0.2,1.2,0.5
				c0.3,0.3,0.5,0.7,0.5,1.2s-0.2,0.9-0.5,1.2c-0.3,0.3-0.7,0.5-1.2,0.5c-0.5,0-0.9-0.2-1.2-0.5c-0.3-0.3-0.5-0.7-0.5-1.2
				s0.2-0.9,0.5-1.2C6,24.2,6.5,24,6.9,24z M6.9,16.8L6.9,17v0.2h15.7c0.1,0,0.2,0,0.3,0c0,0,0.1-0.1,0.1-0.2l2.7-8.4H5.3L6.9,16.8z
				 M22.4,24c0.5,0,0.9,0.2,1.2,0.5s0.5,0.7,0.5,1.2s-0.2,0.9-0.5,1.2s-0.7,0.5-1.2,0.5c-0.5,0-0.9-0.2-1.2-0.5s-0.5-0.7-0.5-1.2
				s0.2-0.9,0.5-1.2S21.9,24,22.4,24z"/>
		</g>
	</g>
</g>
</svg>
