<?xml version="1.0" encoding="UTF-8"?>
<svg width="40px" height="40px" viewBox="0 0 40 40" version="1.1" xmlns="http://www.w3.org/2000/svg" xmlns:xlink="http://www.w3.org/1999/xlink">
    <!-- Generator: Sketch 42 (36781) - http://www.bohemiancoding.com/sketch -->
    <title>Followup</title>
    <desc>Created with Sketch.</desc>
    <defs></defs>
    <g id="Page-1" stroke="none" stroke-width="1" fill="none" fill-rule="evenodd">
        <g id="Followup" fill-rule="nonzero" fill="#FFFFFF">
            <g transform="translate(4.000000, 8.000000)" id="Layer_2">
                <g>
                    <g>
                        <g id="Notes">
                            <path d="M32.3858333,0.595555556 C32.7808758,0.961978494 33.002993,1.4699046 33,2 L33,22 C32.985189,23.0985655 32.0703957,23.9856378 30.9375,24 L2.0625,24 C1.51583912,24.0029023 0.992040321,23.787516 0.614166667,23.4044444 C0.218208343,23.0386354 -0.00408478043,22.530307 -1.64616916e-13,22 L-1.64616916e-13,2 C-0.00408478043,1.46969298 0.218208343,0.961364607 0.614166667,0.595555556 C0.992040321,0.21248404 1.51583912,-0.00290234773 2.0625,3.07506841e-16 L30.9375,3.07506841e-16 C31.4841609,-0.00290234773 32.0079597,0.21248404 32.3858333,0.595555556 L32.3858333,0.595555556 Z M2.0625,2 L2.0625,5.25333333 L16.5,14.8088889 L30.8733333,5.19111111 L30.9375,5.25333333 L30.9375,2 L2.0625,2 Z M9.99166667,12.9333333 L2.0625,7.68888889 L2.0625,20.56 L9.99166667,12.9333333 Z M3.575,22 L29.4525,22 L21.2666667,14.0622222 L16.5,17.1911111 L11.7333333,14.0622222 L3.575,22 Z M30.965,20.56 L30.965,7.56444444 L23.0358333,12.8977778 L30.965,20.56 Z" id="Shape"></path>
                        </g>
                    </g>
                </g>
            </g>
        </g>
    </g>
</svg>