<?xml version="1.0" encoding="UTF-8"?>
<svg width="40px" height="40px" viewBox="0 0 40 40" version="1.1" xmlns="http://www.w3.org/2000/svg" xmlns:xlink="http://www.w3.org/1999/xlink">
    <!-- Generator: Sketch 41.2 (35397) - http://www.bohemiancoding.com/sketch -->
    <title>Forms Icon</title>
    <desc>Created with Sketch.</desc>
    <defs></defs>
    <g id="Page-1" stroke="none" stroke-width="1" fill="none" fill-rule="evenodd">
        <g id="Forms-Icon" fill="#FFFFFF">
            <g id="SidebarForms" transform="translate(5.000000, 6.000000)">
                <g id="Layer_2">
                    <g>
                        <g id="Layer_1-2">
                            <path d="M4.96,0.655520833 L7.47351351,2.99666667 L4.02162162,6.14940972 L1.50810811,3.80826389 C1.05627923,3.39824277 0.802326156,2.83505731 0.804324324,2.2475 C0.802326156,1.65994269 1.05627923,1.09675723 1.50810811,0.686736111 C1.94831717,0.26589203 2.55296736,0.0293541368 3.18378378,0.0312152778 C3.84417566,-0.00506967257 4.48997932,0.221917789 4.96,0.655520833 L4.96,0.655520833 Z M15.742973,17.0435417 L6.02405405,8.01452257 L9.44243243,4.83056424 L19.1027027,13.8829948 L20.7783784,18.5652865 L15.742973,17.0435417 Z M30.4386486,5.79043403 C30.7997194,6.1121276 31.0027357,6.55805101 31,7.0234375 L31,26.3378906 C30.9864627,27.3023539 30.1503371,28.081141 29.1148649,28.09375 L8.37837838,28.09375 C7.34290616,28.081141 6.50678056,27.3023539 6.49324324,26.3378906 L6.49324324,13.8517795 L8.37837838,15.6076389 L8.37837838,26.3378906 L29.1148649,26.3378906 L29.1148649,7.0234375 L17.5945946,7.0234375 L15.742973,5.26757812 L29.1483784,5.26757812 C29.636379,5.27349891 30.1013338,5.46191246 30.4386486,5.79043403 Z" id="Shape"></path>
                        </g>
                    </g>
                </g>
            </g>
        </g>
    </g>
</svg>