<svg id="Layer_1" data-name="Layer 1" xmlns="http://www.w3.org/2000/svg" viewBox="0 0 15.43 15.43"><defs><style>.cls-1{isolation:isolate;}.cls-2{fill:#257a91;}</style></defs><title>Edit.Sm</title><g id="Layer_2" data-name="Layer 2"><g id="Notes"><g class="cls-1"><path class="cls-2" d="M15.43,8.32v2.23a.38.38,0,0,1-.08.23.3.3,0,0,1-.2.13l-1.86.28a6.45,6.45,0,0,1-.39.91q.35.5,1.08,1.39a.39.39,0,0,1,.1.25A.34.34,0,0,1,14,14a10.35,10.35,0,0,1-1,1.08q-.72.71-.95.71a.49.49,0,0,1-.26-.09L10.4,14.59a5.74,5.74,0,0,1-.91.38,16.8,16.8,0,0,1-.29,1.87.34.34,0,0,1-.36.28H6.6A.38.38,0,0,1,6.35,17a.3.3,0,0,1-.12-.22L6,15a6.15,6.15,0,0,1-.9-.37L3.64,15.68a.36.36,0,0,1-.25.09.35.35,0,0,1-.25-.11A13.3,13.3,0,0,1,1.48,14a.4.4,0,0,1-.07-.23.38.38,0,0,1,.08-.23q.15-.21.51-.67l.54-.71a5,5,0,0,1-.41-1L.29,10.87a.32.32,0,0,1-.21-.13A.38.38,0,0,1,0,10.51V8.28A.39.39,0,0,1,.08,8a.3.3,0,0,1,.19-.13l1.87-.28a5,5,0,0,1,.39-.92q-.4-.57-1.07-1.39a.38.38,0,0,1-.1-.24.43.43,0,0,1,.09-.23,10,10,0,0,1,1-1.08q.73-.72.95-.72a.43.43,0,0,1,.26.1L5,4.23a5.74,5.74,0,0,1,.91-.38A16.38,16.38,0,0,1,6.24,2,.34.34,0,0,1,6.6,1.7H8.83a.38.38,0,0,1,.25.08A.3.3,0,0,1,9.19,2l.28,1.85a6.22,6.22,0,0,1,.9.37L11.8,3.14A.32.32,0,0,1,12,3.05a.39.39,0,0,1,.25.1A13.76,13.76,0,0,1,14,4.86a.32.32,0,0,1,.07.22.38.38,0,0,1-.08.23q-.15.21-.51.67t-.54.71a5.93,5.93,0,0,1,.41,1L15.14,8a.31.31,0,0,1,.21.13A.37.37,0,0,1,15.43,8.32Zm-5.9,2.91a2.57,2.57,0,0,0,0-3.64,2.48,2.48,0,0,0-1.82-.75A2.57,2.57,0,0,0,5.14,9.41,2.57,2.57,0,0,0,7.71,12,2.48,2.48,0,0,0,9.53,11.23Z" transform="translate(0 -1.7)"/></g></g></g></svg>