<?xml version="1.0" encoding="UTF-8"?>
<svg width="40px" height="40px" viewBox="0 0 40 40" version="1.1" xmlns="http://www.w3.org/2000/svg" xmlns:xlink="http://www.w3.org/1999/xlink">
    <!-- Generator: Sketch 42 (36781) - http://www.bohemiancoding.com/sketch -->
    <title>Invite</title>
    <desc>Created with Sketch.</desc>
    <defs></defs>
    <g id="Page-1" stroke="none" stroke-width="1" fill="none" fill-rule="evenodd">
        <g id="Invite" fill-rule="nonzero" fill="#FFFFFF">
            <g transform="translate(6.000000, 6.000000)" id="Layer_1">
                <g>
                    <g id="Layer_2">
                        <g id="Notes">
                            <path d="M24.8675,0.58 C25.23,0.9425 25.375,1.3775 25.375,1.8125 L25.375,27.1875 C25.375,27.695 25.23,28.13 24.8675,28.4925 C24.505,28.855 24.07,29 23.5625,29 L1.8125,29 C1.305,29 0.87,28.855 0.5075,28.4925 C0.145,28.13 0,27.695 0,27.1875 L0,1.8125 C0,1.305 0.145,0.87 0.5075,0.5075 C0.87,0.2175 1.305,0 1.8125,0 L23.5625,0 C24.07,0 24.505,0.2175 24.8675,0.58 Z M1.8125,27.1875 L5.4375,27.1875 L5.4375,1.8125 L1.8125,1.8125 L1.8125,27.1875 Z M23.5625,1.8125 L7.25,1.8125 L7.25,27.1875 L23.5625,27.1875 L23.5625,1.8125 Z M19.7925,19.6475 C19.7925,20.735 19.0675,21.46 17.545,21.8225 C16.0225,22.2575 14.5725,22.2575 13.05,21.8225 C11.5275,21.3875 10.8025,20.6625 10.8025,19.6475 C10.8025,17.98 11.2375,16.6025 12.1075,15.37 C12.9775,14.21 14.065,13.63 15.2975,13.63 C16.53,13.63 17.6175,14.21 18.4875,15.37 C19.3575,16.53 19.7925,17.98 19.7925,19.6475 Z M15.2975,6.96 C16.0225,6.96 16.675,7.25 17.255,7.7575 C17.835,8.3375 18.0525,8.99 18.0525,9.715 C18.0525,10.44 17.7625,11.0925 17.255,11.6725 C16.675,12.18 16.0225,12.47 15.2975,12.47 C14.5725,12.47 13.92,12.18 13.34,11.6725 C12.8325,11.165 12.5425,10.5125 12.5425,9.715 L12.5425,8.555 C12.5425,8.555 12.8325,8.265 13.34,7.7575 C13.92,7.25 14.5725,6.96 15.2975,6.96 Z M27.1875,7.25 L29,7.25 L29,1.8125 L27.1875,1.8125 L27.1875,7.25 Z M27.1875,14.5 L29,14.5 L29,9.0625 L27.1875,9.0625 L27.1875,14.5 Z M27.1875,21.75 L29,21.75 L29,16.3125 L27.1875,16.3125 L27.1875,21.75 Z" id="Shape"></path>
                        </g>
                    </g>
                </g>
            </g>
        </g>
    </g>
</svg>