<?xml version="1.0" encoding="UTF-8"?>
<svg width="40px" height="40px" viewBox="0 0 40 40" version="1.1" xmlns="http://www.w3.org/2000/svg" xmlns:xlink="http://www.w3.org/1999/xlink">
    <!-- Generator: Sketch 41.2 (35397) - http://www.bohemiancoding.com/sketch -->
    <title>Items Icon</title>
    <desc>Created with Sketch.</desc>
    <defs></defs>
    <g id="Page-1" stroke="none" stroke-width="1" fill="none" fill-rule="evenodd">
        <g id="Items-Icon" fill="#FFFFFF">
            <g id="SidebarItems" transform="translate(7.000000, 5.000000)">
                <g id="Layer_2">
                    <g>
                        <g id="Layer_1-2">
                            <path d="M24.4044118,0.996428571 C24.5606831,1.18133339 24.6420393,1.41842852 24.6323529,1.66071429 L24.6323529,16.9761905 C24.5944516,17.3581401 24.4098331,17.7102515 24.1176471,17.9578571 L12.3970588,29.7452381 C11.6726523,30.4388143 10.5332301,30.4388143 9.80882353,29.7452381 L1.25,21.1538095 C0.559055992,20.4266433 0.559055992,19.2828805 1.25,18.5557143 L2.72058824,17.0795238 L1.25,15.6033333 C0.559055992,14.8761671 0.559055992,13.7324043 1.25,13.0052381 L12.9705882,1.2547619 C13.2225561,0.956338316 13.5822237,0.77051008 13.9705882,0.738095238 L23.7720588,0.738095238 C24.0106677,0.725276961 24.2425301,0.819999036 24.4044118,0.996428571 L24.4044118,0.996428571 Z M22.7941176,2.58333333 L14.2941176,2.58333333 C14.2644461,2.61814502 14.2220172,2.63944028 14.1764706,2.64238095 L2.57352941,14.3485714 L11.1323529,22.8809524 L22.7941176,11.1747619 L22.7941176,2.58333333 Z M22.7941176,13.7728571 L12.3970588,24.2095238 C11.6726523,24.9031 10.5332301,24.9031 9.80882353,24.2095238 L4.00735294,18.3859524 L2.53676471,19.8621429 L11.1323529,28.4166667 L22.7941176,16.7104762 L22.7941176,13.7580952 L22.7941176,13.7728571 Z M20.0661765,4.42857143 C20.3027425,4.42658415 20.5301948,4.52003955 20.6974781,4.68796012 C20.8647614,4.85588069 20.9578621,5.08419944 20.9558824,5.32166667 C20.958247,5.5680507 20.8660989,5.80590559 20.6985294,5.98595238 C20.5409403,6.17160877 20.3091385,6.27712862 20.0661765,6.27380952 C19.5503554,6.25482411 19.1365604,5.83945281 19.1176471,5.32166667 C19.1143406,5.07777903 19.21946,4.84509421 19.4044118,4.68690476 C19.5837753,4.51869692 19.8207275,4.4261978 20.0661765,4.42857143 L20.0661765,4.42857143 Z" id="Shape"></path>
                        </g>
                    </g>
                </g>
            </g>
        </g>
    </g>
</svg>