<svg xmlns="http://www.w3.org/2000/svg" viewBox="0 0 48.75 48.75"><defs><style>.cls-1{fill:#d7eef1;}</style></defs><title>ItemIcon</title><g id="Layer_2" data-name="Layer 2"><g id="canvas"><path class="cls-1" d="M48.34.46a1.7,1.7,0,0,1,.41,1.17V22.14a2.56,2.56,0,0,1-.91,1.73l-24,24a3.31,3.31,0,0,1-4.57,0L.91,29.45a3.31,3.31,0,0,1,0-4.57l24-24A3.33,3.33,0,0,1,26.61,0H47.23A1.42,1.42,0,0,1,48.34.46ZM45.5,3.25H27.22a.29.29,0,0,1-.2.1L3.25,27.12,21.63,45.5,45.4,21.73l.1-.2ZM40.63,6.5a1.56,1.56,0,0,1,1.63,1.63,1.63,1.63,0,1,1-3.25,0A1.56,1.56,0,0,1,40.63,6.5Z"/></g></g></svg>