<?xml version="1.0" encoding="UTF-8"?>
<svg width="42px" height="42px" viewBox="0 0 42 42" version="1.1" xmlns="http://www.w3.org/2000/svg" xmlns:xlink="http://www.w3.org/1999/xlink">
    <!-- Generator: Sketch 41.2 (35397) - http://www.bohemiancoding.com/sketch -->
    <title>Items Icon</title>
    <desc>Created with Sketch.</desc>
    <defs></defs>
    <g id="Page-1" stroke="none" stroke-width="1" fill="none" fill-rule="evenodd">
        <g id="Items-Icon" fill="#FFFFFF">
            <g id="SidebarItems" transform="translate(3.000000, 0.000000)">
                <g id="Layer_2">
                    <g>
                        <g id="Layer_1-2">
                            <path d="M33.19,1.35 C33.402529,1.60051621 33.5131734,1.92174186 33.5,2.25 L33.5,23 C33.4484542,23.5174801 33.1973731,23.9945342 32.8,24.33 L16.86,40.3 C15.8748071,41.2396839 14.3251929,41.2396839 13.34,40.3 L1.7,28.66 C0.76031615,27.6748071 0.76031615,26.1251929 1.7,25.14 L3.7,23.14 L1.7,21.14 C0.76031615,20.1548071 0.76031615,18.6051929 1.7,17.62 L17.64,1.7 C17.9826763,1.29568417 18.4718242,1.04391688 19,1 L32.33,1 C32.6545081,0.982633302 32.9698409,1.11096644 33.19,1.35 L33.19,1.35 Z M31,3.5 L19.44,3.5 C19.3996467,3.54716421 19.3419434,3.57601587 19.28,3.58 L3.5,19.44 L15.14,31 L31,15.14 L31,3.5 Z M31,18.66 L16.86,32.8 C15.8748071,33.7396839 14.3251929,33.7396839 13.34,32.8 L5.45,24.91 L3.45,26.91 L15.14,38.5 L31,22.64 L31,18.64 L31,18.66 Z M27.29,6 C27.6117298,5.99730756 27.9210649,6.12392456 28.1485702,6.35142984 C28.3760754,6.57893513 28.5026924,6.8882702 28.5,7.21 C28.5032159,7.54381063 28.3778945,7.86606563 28.15,8.11 C27.9356788,8.36153446 27.6204284,8.50449685 27.29,8.5 C26.5884833,8.47427783 26.0257222,7.91151671 26,7.21 C25.9955032,6.87957159 26.1384655,6.56432119 26.39,6.35 C26.6339344,6.1221055 26.9561894,5.99678411 27.29,6 L27.29,6 Z" id="Shape"></path>
                        </g>
                    </g>
                </g>
            </g>
        </g>
    </g>
</svg>