<?xml version="1.0" encoding="utf-8"?>
<!-- Generator: Adobe Illustrator 20.1.0, SVG Export Plug-In . SVG Version: 6.00 Build 0)  -->
<svg version="1.1" id="Layer_1" xmlns="http://www.w3.org/2000/svg" xmlns:xlink="http://www.w3.org/1999/xlink" x="0px" y="0px"
	 viewBox="0 0 18 19.6" style="enable-background:new 0 0 18 19.6;" xml:space="preserve">
<style type="text/css">
	.st0{enable-background:new    ;}
	.st1{fill:#257A91;}
</style>
<title>Share.Sm</title>
<g id="Layer_2">
	<g id="Notes">
		<g class="st0">
			<path class="st1" d="M17.7,0.5C18,0.7,18.1,0.9,18,1.2l-2.6,16.3c0,0.2-0.1,0.4-0.3,0.5C15,18,14.9,18,14.8,18
				c-0.1,0-0.2,0-0.2-0.1L10,16l-2.4,3.1c-0.1,0.2-0.3,0.2-0.5,0.2c-0.1,0-0.2,0-0.2,0c-0.1,0-0.2-0.1-0.3-0.2
				c-0.1-0.1-0.1-0.2-0.1-0.4V15l8.7-11.2L4.4,13.6l-4-1.7C0.2,11.8,0,11.6,0,11.3c0-0.3,0.1-0.5,0.3-0.6L17.1,0.5
				c0.1-0.1,0.2-0.1,0.3-0.1C17.5,0.4,17.6,0.5,17.7,0.5z"/>
		</g>
	</g>
</g>
</svg>
