<svg xmlns="http://www.w3.org/2000/svg" viewBox="0 0 40 40"><defs><style>.cls-1{fill:#b0dfe5;}</style></defs><title>ProfileGeneric</title><g id="Layer_2" data-name="Layer 2"><g id="canvas"><path class="cls-1" d="M20,21a7.32,7.32,0,1,0-7.32-7.32A7.33,7.33,0,0,0,20,21ZM20,8.35a5.33,5.33,0,1,1-5.33,5.33A5.34,5.34,0,0,1,20,8.35Z"/><path class="cls-1" d="M20,0A20,20,0,1,0,40,20,20,20,0,0,0,20,0Zm0,2A18,18,0,0,1,34.35,30.87a10.37,10.37,0,0,0-10.13-8.2H15.78a10.37,10.37,0,0,0-10.12,8.2A18,18,0,0,1,20,2ZM7.42,32.87a8.37,8.37,0,0,1,8.36-8.21h8.45a8.37,8.37,0,0,1,8.36,8.21,18,18,0,0,1-25.16,0Z"/></g></g></svg>