<?xml version="1.0" encoding="UTF-8"?>
<svg width="42px" height="42px" viewBox="0 0 42 42" version="1.1" xmlns="http://www.w3.org/2000/svg" xmlns:xlink="http://www.w3.org/1999/xlink">
    <!-- Generator: Sketch 41.2 (35397) - http://www.bohemiancoding.com/sketch -->
    <title>Settings Icon</title>
    <desc>Created with Sketch.</desc>
    <defs></defs>
    <g id="Page-1" stroke="none" stroke-width="1" fill="none" fill-rule="evenodd">
        <g id="Settings-Icon" fill="#FFFFFF">
            <g id="SidebarSettings" transform="translate(5.000000, 7.000000)">
                <g id="Layer_2">
                    <g>
                        <g id="Layer_1-2">
                            <path d="M30.65,2.85 C30.8854832,3.08909426 31.0120807,3.41463088 31,3.75 C31.0143049,4.08570186 30.8872086,4.41202364 30.6496161,4.64961612 C30.4120236,4.8872086 30.0857019,5.01430491 29.75,5 L26,5 C26.0073402,5.66375793 25.7394454,6.30091328 25.26,6.76 C24.800223,7.23844097 24.1635231,7.50614437 23.5,7.5 L21,7.5 C20.3362421,7.50734022 19.6990867,7.23944536 19.24,6.76 C18.7605546,6.30091328 18.4926598,5.66375793 18.5,5 L2.25,5 C1.91429814,5.01430491 1.58797636,4.8872086 1.35038388,4.64961612 C1.1127914,4.41202364 0.985695087,4.08570186 1,3.75 C0.985695087,3.41429814 1.1127914,3.08797636 1.35038388,2.85038388 C1.58797636,2.6127914 1.91429814,2.48569509 2.25,2.5 L18.5,2.5 C18.4926598,1.83624207 18.7605546,1.19908672 19.24,0.74 C19.6990867,0.260554641 20.3362421,-0.00734022012 21,2.66442684e-16 L23.5,2.66442684e-16 C24.1635231,-0.00614436878 24.800223,0.261559026 25.26,0.74 C25.738441,1.19977696 26.0061444,1.83647693 26,2.5 L29.75,2.5 C30.0853691,2.48791926 30.4109057,2.61451683 30.65,2.85 L30.65,2.85 Z M30.65,12.85 C31.0216282,13.2078353 31.1352444,13.7572198 30.9360355,14.2331079 C30.7368265,14.7089959 30.2657211,15.0136133 29.75,15 L13.5,15 C13.4838025,16.3739467 12.3739467,17.4838025 11,17.5 L8.5,17.5 C7.83624207,17.5073402 7.19908672,17.2394454 6.74,16.76 C6.26055464,16.3009133 5.99265978,15.6637579 6,15 L2.25,15 C1.55964406,15 1,14.4403559 1,13.75 C1,13.0596441 1.55964406,12.5 2.25,12.5 L6,12.5 C5.99265978,11.8362421 6.26055464,11.1990867 6.74,10.74 C7.19908672,10.2605546 7.83624207,9.99265978 8.5,10 L11,10 C12.3739467,10.0161975 13.4838025,11.1260533 13.5,12.5 L29.75,12.5 C30.0853691,12.4879193 30.4109057,12.6145168 30.65,12.85 L30.65,12.85 Z M30.65,22.85 C31.0216282,23.2078353 31.1352444,23.7572198 30.9360355,24.2331079 C30.7368265,24.7089959 30.2657211,25.0136133 29.75,25 L21,25 C20.9838025,26.3739467 19.8739467,27.4838025 18.5,27.5 L16,27.5 C14.6260533,27.4838025 13.5161975,26.3739467 13.5,25 L2.25,25 C1.55964406,25 1,24.4403559 1,23.75 C1,23.0596441 1.55964406,22.5 2.25,22.5 L13.5,22.5 C13.5161975,21.1260533 14.6260533,20.0161975 16,20 L18.5,20 C19.8739467,20.0161975 20.9838025,21.1260533 21,22.5 L29.75,22.5 C30.0853691,22.4879193 30.4109057,22.6145168 30.65,22.85 L30.65,22.85 Z M11,12.5 L8.5,12.5 L8.5,15 L11,15 L11,12.5 Z M18.5,22.5 L16,22.5 L16,25 L18.5,25 L18.5,22.5 Z M23.5,2.5 L21,2.5 L21,5 L23.5,5 L23.5,2.5 Z" id="Shape"></path>
                        </g>
                    </g>
                </g>
            </g>
        </g>
    </g>
</svg>