<?xml version="1.0" encoding="UTF-8"?>
<svg width="40px" height="40px" viewBox="0 0 40 40" version="1.1" xmlns="http://www.w3.org/2000/svg" xmlns:xlink="http://www.w3.org/1999/xlink">
    <!-- Generator: Sketch 41.2 (35397) - http://www.bohemiancoding.com/sketch -->
    <title>Settings Icon</title>
    <desc>Created with Sketch.</desc>
    <defs></defs>
    <g id="Page-1" stroke="none" stroke-width="1" fill="none" fill-rule="evenodd">
        <g id="Settings-Icon" fill="#FFFFFF">
            <g id="SidebarSettings" transform="translate(6.000000, 8.000000)">
                <g id="Layer_2">
                    <g>
                        <g id="Layer_1-2">
                            <path d="M26.81875,2.54464286 C27.0247978,2.75811988 27.1355706,3.04877757 27.125,3.34821429 C27.1375168,3.64794809 27.0263075,3.93930683 26.8184141,4.15144297 C26.6105207,4.36357911 26.3249891,4.47705796 26.03125,4.46428571 L22.75,4.46428571 C22.7564227,5.05692672 22.5220147,5.62581543 22.1025,6.03571429 C21.7001952,6.46289373 21.1430827,6.70191461 20.5625,6.69642857 L18.375,6.69642857 C17.7942118,6.70298234 17.2367009,6.4637905 16.835,6.03571429 C16.4154853,5.62581543 16.1810773,5.05692672 16.1875,4.46428571 L1.96875,4.46428571 C1.67501087,4.47705796 1.38947931,4.36357911 1.18158589,4.15144297 C0.973692473,3.93930683 0.862483201,3.64794809 0.875,3.34821429 C0.862483201,3.04848048 0.973692473,2.75712175 1.18158589,2.5449856 C1.38947931,2.33284946 1.67501087,2.21937061 1.96875,2.23214286 L16.1875,2.23214286 C16.1810773,1.63950185 16.4154853,1.07061315 16.835,0.660714286 C17.2367009,0.232638072 17.7942118,-0.00655376796 18.375,1.12370508e-14 L20.5625,1.12370508e-14 C21.1430827,-0.00548604356 21.7001952,0.233534845 22.1025,0.660714286 C22.5211359,1.07122943 22.7553763,1.63971154 22.75,2.23214286 L26.03125,2.23214286 C26.324698,2.22135648 26.6095425,2.33439003 26.81875,2.54464286 L26.81875,2.54464286 Z M26.81875,11.4732143 C27.1439247,11.7927101 27.2433389,12.283232 27.069031,12.708132 C26.8947232,13.133032 26.482506,13.4050119 26.03125,13.3928571 L11.8125,13.3928571 C11.7983272,14.6195953 10.8272034,15.6105379 9.625,15.625 L7.4375,15.625 C6.85671181,15.6315538 6.29920088,15.3923619 5.8975,14.9642857 C5.47798531,14.5543869 5.24357731,13.9854982 5.25,13.3928571 L1.96875,13.3928571 C1.36468855,13.3928571 0.875,12.8931749 0.875,12.2767857 C0.875,11.6603965 1.36468855,11.1607143 1.96875,11.1607143 L5.25,11.1607143 C5.24357731,10.5680733 5.47798531,9.99918457 5.8975,9.58928571 C6.29920088,9.1612095 6.85671181,8.92201766 7.4375,8.92857143 L9.625,8.92857143 C10.8272034,8.9430335 11.7983272,9.93397615 11.8125,11.1607143 L26.03125,11.1607143 C26.324698,11.1499279 26.6095425,11.2629615 26.81875,11.4732143 L26.81875,11.4732143 Z M26.81875,20.4017857 C27.1439247,20.7212815 27.2433389,21.2118034 27.069031,21.6367035 C26.8947232,22.0616035 26.482506,22.3335833 26.03125,22.3214286 L18.375,22.3214286 C18.3608272,23.5481667 17.3897034,24.5391094 16.1875,24.5535714 L14,24.5535714 C12.7977966,24.5391094 11.8266728,23.5481667 11.8125,22.3214286 L1.96875,22.3214286 C1.36468855,22.3214286 0.875,21.8217464 0.875,21.2053571 C0.875,20.5889679 1.36468855,20.0892857 1.96875,20.0892857 L11.8125,20.0892857 C11.8266728,18.8625476 12.7977966,17.8716049 14,17.8571429 L16.1875,17.8571429 C17.3897034,17.8716049 18.3608272,18.8625476 18.375,20.0892857 L26.03125,20.0892857 C26.324698,20.0784993 26.6095425,20.1915329 26.81875,20.4017857 L26.81875,20.4017857 Z M9.625,11.1607143 L7.4375,11.1607143 L7.4375,13.3928571 L9.625,13.3928571 L9.625,11.1607143 Z M16.1875,20.0892857 L14,20.0892857 L14,22.3214286 L16.1875,22.3214286 L16.1875,20.0892857 Z M20.5625,2.23214286 L18.375,2.23214286 L18.375,4.46428571 L20.5625,4.46428571 L20.5625,2.23214286 Z" id="Shape"></path>
                        </g>
                    </g>
                </g>
            </g>
        </g>
    </g>
</svg>