<svg xmlns="http://www.w3.org/2000/svg" viewBox="0 0 100 88.83"><defs><style>.cls-1{fill:#9d9d9d;}.cls-2{fill:#f36d36;}.cls-3{fill:#fff;}</style></defs><title>ShareTab</title><g id="Layer_2" data-name="Layer 2"><g id="wireframe"><g id="WIRE_FRAME_INFO" data-name="WIRE FRAME INFO"><path class="cls-1" d="M72.2,88.83a2.08,2.08,0,0,1-1.45-.59L47.05,65.12a2.09,2.09,0,0,1-.17-2.8L96.29.78A2.08,2.08,0,0,1,99.9,2.7L74.19,87.36a2.08,2.08,0,0,1-1.47,1.41A2.4,2.4,0,0,1,72.2,88.83ZM51.31,63.46,71.2,82.87,92.78,11.8Z"/><path class="cls-1" d="M31.94,54.64a2.08,2.08,0,0,1-.64-.1L1.44,44.9A2.08,2.08,0,0,1,1.26,41L97.1.17a2.08,2.08,0,0,1,2.08,3.57l-66,50.47A2.08,2.08,0,0,1,31.94,54.64ZM8,42.65l23.51,7.58L83.48,10.5Z"/><path class="cls-1" d="M31.63,84.3a2.19,2.19,0,0,1-.7-.12,2.08,2.08,0,0,1-1.38-2V52.55a2.08,2.08,0,0,1,.82-1.65L96.34.43a2.08,2.08,0,0,1,2.87,3l-66,80.13A2.09,2.09,0,0,1,31.63,84.3Zm2.08-30.72V76.41L84.48,14.75Z"/></g></g><g id="canvas"><circle class="cls-2" cx="83.29" cy="63.14" r="15.47"/><path class="cls-3" d="M75.28,61.3h6.16V55.14h3.68V61.3h6.16V65H85.13v6.16H81.45V65H75.28Z"/></g></g></svg>