<?xml version="1.0" encoding="UTF-8"?>
<svg width="40px" height="40px" viewBox="0 0 40 40" version="1.1" xmlns="http://www.w3.org/2000/svg" xmlns:xlink="http://www.w3.org/1999/xlink">
    <!-- Generator: Sketch 42 (36781) - http://www.bohemiancoding.com/sketch -->
    <title>ShareLink</title>
    <desc>Created with Sketch.</desc>
    <defs></defs>
    <g id="Page-1" stroke="none" stroke-width="1" fill="none" fill-rule="evenodd">
        <g id="ShareLink" fill-rule="nonzero" fill="#FFFFFF">
            <g transform="translate(8.000000, 4.000000)" id="Layer_1">
                <g>
                    <g id="Layer_2">
                        <g id="Notes">
                            <path d="M4.375,5.6 C3.75,6.22222222 3.48214286,6.93333333 3.48214286,7.73333333 C3.48214286,8.53333333 3.75,9.24444444 4.375,9.86666667 L15.1785714,20.6222222 C12.9464286,21.2444444 10.9821429,20.7111111 9.375,19.0222222 L2.32142857,12 C1.07142857,10.8444444 0.535714286,9.42222222 0.535714286,7.82222222 C0.535714286,6.13333333 1.16071429,4.71111111 2.32142857,3.55555556 L3.92857143,1.95555556 C5.08928571,0.8 6.51785714,0.177777778 8.21428571,0.177777778 C9.91071429,0.177777778 11.3392857,0.8 12.5,1.95555556 L19.5535714,8.97777778 C21.1607143,10.5777778 21.6964286,12.5333333 21.0714286,14.7555556 L10.3571429,4 C9.73214286,3.37777778 9.01785714,3.11111111 8.21428571,3.11111111 C7.41071429,3.11111111 6.69642857,3.37777778 6.07142857,4 L4.375,5.6 Z M5.44642857,23.0222222 C3.83928571,21.4222222 3.30357143,19.4666667 3.92857143,17.2444444 L14.6428571,28 C15.2678571,28.6222222 15.9821429,28.8888889 16.7857143,28.8888889 C17.5892857,28.8888889 18.3035714,28.6222222 18.9285714,28 L20.5357143,26.4 C21.1607143,25.7777778 21.4285714,25.0666667 21.4285714,24.2666667 C21.4285714,23.4666667 21.1607143,22.7555556 20.5357143,22.1333333 L9.82142857,11.3777778 C12.0535714,10.7555556 14.0178571,11.2888889 15.625,12.9777778 L22.6785714,20 C23.9285714,21.1555556 24.4642857,22.5777778 24.4642857,24.1777778 C24.4642857,25.8666667 23.8392857,27.2888889 22.6785714,28.4444444 L21.0714286,30.0444444 C19.9107143,31.2 18.4821429,31.8222222 16.7857143,31.8222222 C15.0892857,31.8222222 13.6607143,31.2 12.5,30.0444444 L5.44642857,23.0222222 Z" id="Shape"></path>
                        </g>
                    </g>
                </g>
            </g>
        </g>
    </g>
</svg>