<?xml version="1.0" encoding="utf-8"?>
<!-- Generator: Adobe Illustrator 20.1.0, SVG Export Plug-In . SVG Version: 6.00 Build 0)  -->
<svg version="1.1" id="Layer_1" xmlns="http://www.w3.org/2000/svg" xmlns:xlink="http://www.w3.org/1999/xlink" x="0px" y="0px"
	 viewBox="0 0 19 19.1" style="enable-background:new 0 0 19 19.1;" xml:space="preserve">
<style type="text/css">
	.st0{enable-background:new    ;}
	.st1{fill:#257A91;}
</style>
<title>Timing.Sm</title>
<g id="Layer_2">
	<g id="Notes">
		<g class="st0">
			<path class="st1" d="M19,10.1c0,2.4-0.9,4.5-2.6,6.3c-1.7,1.7-3.8,2.6-6.3,2.6s-4.5-0.9-6.3-2.6c-1.7-1.7-2.6-3.8-2.6-6.3
				c0-2.4,0.9-4.5,2.6-6.3c1.7-1.7,3.8-2.6,6.3-2.6s4.5,0.9,6.3,2.6C18.1,5.6,19,7.7,19,10.1z M15.6,4.7c-1.5-1.5-3.3-2.2-5.4-2.2
				C8,2.4,6.2,3.2,4.7,4.7C3.2,6.2,2.4,8,2.4,10.1c0,2.1,0.7,3.9,2.2,5.4c1.5,1.5,3.3,2.2,5.4,2.2c2.1,0,3.9-0.7,5.4-2.2
				c1.5-1.5,2.2-3.3,2.2-5.4C17.8,8,17.1,6.2,15.6,4.7z M14.1,9.7c0.1,0.1,0.2,0.3,0.2,0.4c0,0.2-0.1,0.3-0.2,0.4s-0.3,0.2-0.4,0.2
				h-3.6c-0.2,0-0.3-0.1-0.4-0.2s-0.2-0.3-0.2-0.4V5.3c0-0.2,0.1-0.3,0.2-0.4s0.3-0.2,0.4-0.2c0.2,0,0.3,0.1,0.4,0.2
				s0.2,0.3,0.2,0.4v4.2h3C13.8,9.5,14,9.6,14.1,9.7z"/>
		</g>
	</g>
</g>
</svg>
