<svg xmlns="http://www.w3.org/2000/svg" viewBox="0 0 17.74 17.74"><defs><style>.cls-1{fill:#257a91;}</style></defs><title>Timing</title><g id="Layer_2" data-name="Layer 2"><g id="Layer_1-2" data-name="Layer 1"><path class="cls-1" d="M17.74,8.87a8.55,8.55,0,0,1-2.6,6.27,8.55,8.55,0,0,1-6.27,2.6,8.54,8.54,0,0,1-6.27-2.6A8.54,8.54,0,0,1,0,8.87,8.54,8.54,0,0,1,2.6,2.6,8.54,8.54,0,0,1,8.87,0a8.55,8.55,0,0,1,6.27,2.6A8.55,8.55,0,0,1,17.74,8.87ZM14.3,3.43A7.4,7.4,0,0,0,8.87,1.19,7.41,7.41,0,0,0,3.43,3.43,7.41,7.41,0,0,0,1.19,8.87a7.41,7.41,0,0,0,2.24,5.44,7.4,7.4,0,0,0,5.44,2.25,7.4,7.4,0,0,0,5.44-2.25,7.4,7.4,0,0,0,2.25-5.44A7.41,7.41,0,0,0,14.3,3.43Zm-1.48,5a.59.59,0,0,1-.43,1H8.83a.57.57,0,0,1-.59-.59V4.08a.59.59,0,1,1,1.19,0V8.24h3A.58.58,0,0,1,12.82,8.41Z"/></g></g></svg>