<?xml version="1.0" encoding="utf-8"?>
<!-- Generator: Adobe Illustrator 20.1.0, SVG Export Plug-In . SVG Version: 6.00 Build 0)  -->
<svg version="1.1" id="Layer_1" xmlns="http://www.w3.org/2000/svg" xmlns:xlink="http://www.w3.org/1999/xlink" x="0px" y="0px"
	 viewBox="0 0 27.5 27.6" style="enable-background:new 0 0 27.5 27.6;" xml:space="preserve">
<style type="text/css">
	.st0{enable-background:new    ;}
	.st1{fill:#B0DFE5;}
</style>
<title>Timing.png</title>
<g id="Layer_2">
	<g id="canvas">
		<g class="st0">
			<path class="st1" d="M27.5,14.6c0,3.5-1.3,6.6-3.8,9.1c-2.5,2.5-5.5,3.8-9.1,3.8c-3.5,0-6.6-1.3-9.1-3.8
				c-2.5-2.5-3.8-5.5-3.8-9.1c0-3.5,1.3-6.6,3.8-9.1c2.5-2.5,5.5-3.8,9.1-3.8c3.5,0,6.6,1.3,9.1,3.8C26.2,8.1,27.5,11.1,27.5,14.6z
				 M22.5,6.8c-2.2-2.2-4.8-3.2-7.9-3.2c-3.1,0-5.7,1.1-7.9,3.2C4.6,9,3.5,11.6,3.5,14.6s1.1,5.7,3.2,7.9c2.2,2.2,4.8,3.2,7.9,3.2
				c3.1,0,5.7-1.1,7.9-3.2s3.2-4.8,3.2-7.9S24.7,9,22.5,6.8z M20.3,14c0.2,0.2,0.2,0.4,0.2,0.6s-0.1,0.5-0.2,0.6
				c-0.2,0.2-0.4,0.2-0.6,0.2h-5.1c-0.3,0-0.5-0.1-0.6-0.2s-0.2-0.4-0.2-0.6V7.7c0-0.2,0.1-0.5,0.2-0.6c0.2-0.2,0.4-0.2,0.6-0.2
				c0.2,0,0.5,0.1,0.6,0.2c0.2,0.2,0.2,0.4,0.2,0.6v6h4.3C20,13.7,20.2,13.8,20.3,14z"/>
		</g>
	</g>
</g>
</svg>
