<svg id="Layer_1" data-name="Layer 1" xmlns="http://www.w3.org/2000/svg" viewBox="0 0 18 18.02"><defs><style>.cls-1{isolation:isolate;}.cls-2{fill:#257a91;}</style></defs><title>Visitor.Sm</title><g id="Layer_2" data-name="Layer 2"><g id="Notes"><g class="cls-1"><path class="cls-2" d="M7.38,15.57a10,10,0,0,1-4.92,0Q0,15,0,13.51a7.76,7.76,0,0,1,1.42-5,4.33,4.33,0,0,1,7,0,7.76,7.76,0,0,1,1.42,5Q9.84,15,7.38,15.57ZM5.06,5.64a2.7,2.7,0,0,1-2-.84,2.72,2.72,0,0,1,0-3.94A2.72,2.72,0,0,1,7,.86,2.72,2.72,0,0,1,7,4.8,2.7,2.7,0,0,1,5.06,5.64Zm11.51,5.08a7.76,7.76,0,0,1,1.42,5q0,1.23-1.85,1.86a9.66,9.66,0,0,1-4.08.42,6,6,0,0,1-3.29-1.09q2.74-1.09,2.74-3.37a11.56,11.56,0,0,0-.63-3.94,4.06,4.06,0,0,1,2.18-.63A4.33,4.33,0,0,1,16.58,10.72ZM10.41,5a2.7,2.7,0,0,1,.84-2,2.72,2.72,0,0,1,3.94,0,2.72,2.72,0,0,1,0,3.94,2.72,2.72,0,0,1-3.94,0A2.7,2.7,0,0,1,10.41,5Z" transform="translate(0 -0.02)"/></g></g></g></svg>