<svg xmlns="http://www.w3.org/2000/svg" viewBox="0 0 20.77 20.77"><defs><style>.cls-1{fill:#257a91;}</style></defs><title>Withdraw.Sm</title><g id="Layer_2" data-name="Layer 2"><g id="Notes"><path class="cls-1" d="M10.38,0A10.38,10.38,0,1,0,20.77,10.38,10.4,10.4,0,0,0,10.38,0Zm0,19.28a8.9,8.9,0,1,1,8.9-8.9A8.91,8.91,0,0,1,10.38,19.28Zm.18-12.92a1.26,1.26,0,0,1,1,.43c.26.31.39.38.39,1.38h2.29a3.71,3.71,0,0,0-.6-2.47,2.69,2.69,0,0,0-2-1.13V3.18h-2V4.55a3.07,3.07,0,0,0-2.11,1,2.94,2.94,0,0,0-.77,2.2,3.29,3.29,0,0,0,.29,1.34,3,3,0,0,0,.72,1,4.68,4.68,0,0,0,1.08.74,14.54,14.54,0,0,0,1.49.65,3.3,3.3,0,0,1,1.23.71,1.47,1.47,0,0,1,.36,1,1.28,1.28,0,0,1-.4,1,1.57,1.57,0,0,1-1.1.37,1.8,1.8,0,0,1-1.29-.72c-.3-.33-.45-.66-.45-1.66H6.47c0,2,.21,2.16.8,2.81a4,4,0,0,0,2.42,1.36v1.83h1V16.34a4.28,4.28,0,0,0,2.53-1,3,3,0,0,0,.95-2.19A3.33,3.33,0,0,0,14,11.9a2.82,2.82,0,0,0-.61-1,4.36,4.36,0,0,0-1-.76,13.48,13.48,0,0,0-1.55-.72,3.83,3.83,0,0,1-1.29-.74,1.34,1.34,0,0,1-.35-1,1.4,1.4,0,0,1,.36-1A1.34,1.34,0,0,1,10.56,6.36Z"/></g></g></svg>