<?xml version="1.0" encoding="UTF-8"?>
<svg width="328px" height="37px" viewBox="0 0 328 37" version="1.1" xmlns="http://www.w3.org/2000/svg" xmlns:xlink="http://www.w3.org/1999/xlink">
    <!-- Generator: Sketch 41.2 (35397) - http://www.bohemiancoding.com/sketch -->
    <title>Word Mark</title>
    <desc>Created with Sketch.</desc>
    <defs></defs>
    <g id="Page-1" stroke="none" stroke-width="1" fill="none" fill-rule="evenodd">
        <g id="Word-Mark" fill="#414141">
            <g id="LogoHoriz">
                <g id="Layer_1">
                    <g>
                        <path d="M19.0627432,36.3249123 C9.31607118,36.3249123 0.887082325,29.6373246 0.887082325,18.5405702 C0.887082325,7.44381579 9.25332436,0.840614035 19.0627432,0.840614035 C23.2700264,0.674134719 27.4215158,1.85576241 30.9218912,4.21605263 L30.9218912,11.7685965 C28.0161253,9.22622536 24.3104783,7.80590131 20.4640887,7.76026316 C14.7280149,8.01589414 10.2079959,12.7808888 10.2079959,18.5722149 C10.2079959,24.3635411 14.7280149,29.1285357 20.4640887,29.3841667 C24.3272849,29.3470926 28.0448713,27.8921944 30.9218912,25.2914474 L30.9218912,32.9283772 C27.4239943,35.2961096 23.2723118,36.4851777 19.0627432,36.3249123 L19.0627432,36.3249123 Z" id="Shape"></path>
                        <polygon id="Shape" points="59.7854263 35.6076316 59.7854263 21.3675 45.9811269 21.3675 45.9811269 35.6076316 37.238404 35.6076316 37.238404 1.55789474 45.9811269 1.55789474 45.9811269 13.8993421 59.7854263 13.8993421 59.7854263 1.55789474 68.5281492 1.55789474 68.5281492 35.6076316"></polygon>
                        <polygon id="Shape" points="75.7858642 35.6076316 75.7858642 1.55789474 99.0231014 1.55789474 99.0231014 8.24548246 84.5076715 8.24548246 84.5076715 14.3845614 96.1994947 14.3845614 96.1994947 20.9033772 84.5076715 20.9033772 84.5076715 28.9200439 99.0231014 28.9200439 99.0231014 35.6076316"></polygon>
                        <path d="M117.97264,35.6076316 L105.02588,35.6076316 L105.02588,1.55789474 L117.97264,1.55789474 C131.776939,1.55789474 137.465984,9.19482456 137.465984,18.5405702 C137.465984,27.8863158 131.839686,35.6076316 117.97264,35.6076316 Z M117.261509,8.39315789 L113.789519,8.39315789 L113.789519,28.7723684 L117.30334,28.7723684 C125.25127,28.7723684 128.618683,25.3969298 128.618683,18.5405702 C128.618683,11.6842105 125.293101,8.41425439 117.345171,8.41425439 L117.261509,8.39315789 Z" id="Shape"></path>
                        <path d="M156.080872,35.6076316 L143.071366,35.6076316 L143.071366,1.55789474 L156.018125,1.55789474 C169.822425,1.55789474 175.511469,9.19482456 175.511469,18.5405702 C175.511469,27.8863158 169.885171,35.6076316 156.080872,35.6076316 Z M155.369742,8.39315789 L151.85592,8.39315789 L151.85592,28.7723684 L155.369742,28.7723684 C163.317671,28.7723684 166.685084,25.3969298 166.685084,18.5405702 C166.685084,11.6842105 163.338587,8.41425439 155.369742,8.41425439 L155.369742,8.39315789 Z" id="Shape"></path>
                        <path d="M203.20373,35.6076316 L200.25463,28.2449561 L187.391533,28.2449561 L184.421517,35.713114 L176.055275,35.713114 L190.319718,1.66337719 L197.577433,1.66337719 L211.841875,35.713114 L203.20373,35.6076316 Z M189.54584,22.4012281 L198.121238,22.4012281 L193.833539,11.2411842 L189.54584,22.4012281 Z" id="Shape"></path>
                        <path d="M240.391676,36.0084649 C235.879925,36.2359241 231.768951,33.4083546 230.33127,29.0888158 L227.528579,22.4012281 L224.328492,22.4012281 L224.328492,35.6076316 L215.585769,35.6076316 L215.585769,1.55789474 L230.645004,1.55789474 C238.760259,1.55789474 242.336828,6.51557018 242.336828,12.1061404 C242.532848,16.5230446 239.693,20.4965364 235.476509,21.7050439 L238.216453,26.8103947 C239.617799,29.4052632 241.019144,30.3546053 243.215283,30.3546053 C243.885564,30.3732389 244.551111,30.236091 245.160434,29.9537719 L245.160434,35.3122807 C243.610953,35.7681618 242.00572,36.0025075 240.391676,36.0084649 Z M228.469781,7.46491228 L224.28666,7.46491228 L224.28666,16.7473684 L228.469781,16.7473684 C232.130012,16.7473684 233.698683,15.1018421 233.698683,12.1061404 C233.698683,9.1104386 232.130012,7.46491228 228.469781,7.46491228 Z" id="Shape"></path>
                        <path d="M277.663285,36.5569737 C268.69049,36.5569737 261.516437,31.4516228 261.516437,19.8907456 L261.516437,1.55789474 L270.321907,1.55789474 L270.321907,19.4899123 C270.321907,25.6922807 272.894527,28.9200439 277.809694,28.9200439 C282.724861,28.9200439 285.29748,25.6922807 285.29748,19.4899123 L285.29748,1.55789474 L293.872879,1.55789474 L293.872879,19.8063596 C293.872879,31.4516228 286.782488,36.5569737 277.663285,36.5569737 Z" id="Shape"></path>
                        <path d="M315.227711,24.2155263 L309.768738,24.2155263 L309.768738,35.6287281 L301.026015,35.6287281 L301.026015,1.55789474 L315.227711,1.55789474 C323.593953,1.55789474 327.400593,6.66324561 327.400593,12.8867105 C327.400593,19.1101754 323.6567,24.2155263 315.227711,24.2155263 Z M313.136151,7.46491228 L309.705992,7.46491228 L309.705992,18.3085088 L313.136151,18.3085088 C316.104853,18.3085088 318.511461,15.881087 318.511461,12.8867105 C318.511461,9.89233404 316.104853,7.46491228 313.136151,7.46491228 L313.136151,7.46491228 Z" id="Shape"></path>
                    </g>
                </g>
            </g>
        </g>
    </g>
</svg>